<svg t="1645062296766" class="icon" viewBox="0 0 1274 1024" version="1.1" xmlns="http://www.w3.org/2000/svg" p-id="11569" width="200" height="200"><path d="M122.326128 118.739563 213.912361 118.739563 213.912361 162.066591 122.326128 162.066591 122.326128 118.739563 122.326128 118.739563ZM263.814101 118.739563 355.395057 118.739563 355.395057 162.066591 263.814101 162.066591 263.814101 118.739563 263.814101 118.739563ZM401.198731 118.739563 492.786722 118.739563 492.786722 162.066591 401.198731 162.066591 401.198731 118.739563 401.198731 118.739563ZM804.294289 827.597412C863.659061 827.597412 917.903447 805.248516 959.130451 768.517842L1160.540984 945.832427 1189.051486 913.27762 988.679109 736.871598C1019.353897 697.259987 1037.651788 647.551848 1037.651788 593.627278 1037.651788 464.620057 932.970748 359.664188 804.294289 359.664188 675.62487 359.664188 570.943828 464.620057 570.943828 593.627278 570.943828 722.641557 675.62487 827.597412 804.294289 827.597412L804.294289 827.597412 804.294289 827.597412ZM804.294289 402.989447C909.14073 402.989447 994.43822 488.512629 994.43822 593.634336 994.43822 698.748973 909.14073 784.270398 804.294289 784.270398 699.454886 784.270398 614.155638 698.748973 614.155638 593.634336 614.155638 488.512629 699.454886 402.989447 804.294289 402.989447L804.294289 402.989447 804.294289 402.989447ZM123.047556 455.709077 411.735106 455.709077 411.735106 499.036089 123.047556 499.036089 123.047556 455.709077 123.047556 455.709077ZM123.047556 572.710907 411.735106 572.710907 411.735106 616.037922 123.047556 616.037922 123.047556 572.710907 123.047556 572.710907ZM728.30147 716.265731 808.156572 634.045126 888.011672 716.265731 918.969756 686.041435 838.310524 602.99165 918.969756 519.943646 888.011672 489.717582 808.156572 571.939955 728.30147 489.717582 697.338108 519.943646 777.995579 602.99165 697.338108 686.041435 728.30147 716.265731 728.30147 716.265731ZM123.047556 692.574273 411.735106 692.574273 411.735106 735.899519 123.047556 735.899519 123.047556 692.574273 123.047556 692.574273ZM0 1023.589601 1267.125892 1023.589601 1267.125892 0 0 0 0 1023.589601 0 1023.589601ZM43.21357 43.327015 1223.912321 43.327015 1223.912321 250.158447 43.21357 250.158447 43.21357 43.327015 43.21357 43.327015ZM43.21357 293.485474 1223.912321 293.485474 1223.912321 980.262574 43.21357 980.262574 43.21357 293.485474 43.21357 293.485474Z" p-id="11570" fill="#bfbfbf"></path></svg>